<?xml version="1.0" encoding="iso-8859-1"?>
<!-- Uploaded to: SVG Repo, www.svgrepo.com, Generator: SVG Repo Mixer Tools -->
<svg fill="#000000" height="800px" width="800px" version="1.1" id="Layer_1" xmlns="http://www.w3.org/2000/svg" xmlns:xlink="http://www.w3.org/1999/xlink" 
	 viewBox="0 0 512 512" xml:space="preserve">
<g>
	<g>
		<g>
			<path d="M469.321,368.376L260.365,251.708c-2.712-1.515-6.016-1.515-8.729,0L42.678,368.376
				c-12.398,6.922-14.309,19.016-11.963,28.023c2.343,9.01,9.907,18.638,24.108,18.638h402.355c14.2,0,21.764-9.627,24.108-18.636
				C483.63,387.392,481.719,375.298,469.321,368.376z M250.035,273.107l5.964-3.33l5.971,3.334v4.075
				c0,3.291-2.677,5.968-5.968,5.968c-3.291,0-5.968-2.677-5.968-5.968V273.107z M463.958,391.893
				c-1.363,5.241-5.442,5.241-6.781,5.241H54.823c-1.34,0-5.418,0-6.781-5.242c-1.364-5.242,2.195-7.229,3.365-7.882l181.4-101.282
				c2.508,10.495,11.944,18.331,23.196,18.331c11.252,0,20.686-7.835,23.195-18.327l181.394,101.278
				C461.762,384.661,465.323,386.65,463.958,391.893z"/>
			<path d="M483.867,342.323l-205.25-114.599c-4.107-23.176-18.152-43.74-38.234-55.647c-9.738-5.771-15.522-16.384-15.098-27.692
				c0.61-15.931,13.566-28.887,29.505-29.497c8.43-0.333,16.427,2.712,22.512,8.566c6.075,5.853,9.422,13.72,9.422,22.151
				c0,13.163,10.709,23.871,23.871,23.871s23.871-10.709,23.871-23.871c0-21.533-8.541-41.614-24.049-56.544
				c-15.496-14.917-35.903-22.686-57.454-21.881c-40.724,1.55-73.837,34.664-75.386,75.387
				c-1.091,28.827,13.645,55.874,38.455,70.581c6.336,3.757,11.166,9.612,13.818,16.544L28.132,342.323
				C6.028,354.664-4.539,379.417,1.838,403.916c6.376,24.499,27.669,40.96,52.985,40.96h402.355
				c25.316,0,46.609-16.461,52.985-40.96C516.539,379.417,505.971,354.664,483.867,342.323z M225.165,197.751
				c-19.157-11.358-30.536-32.242-29.694-54.502c1.195-31.426,26.749-56.979,58.17-58.176c16.647-0.609,32.401,5.373,44.362,16.888
				c11.97,11.523,18.562,27.024,18.562,43.645c0,3.291-2.677,5.968-5.968,5.968c-3.291,0-5.968-2.677-5.968-5.968
				c0-13.339-5.294-25.786-14.909-35.05c-9.635-9.268-22.288-14.078-35.625-13.558c-25.221,0.966-45.735,21.48-46.701,46.708
				c-0.672,17.879,8.471,34.652,23.858,43.772c11.982,7.104,21.18,18.208,26.266,31.158c-4.066-0.255-8.187,0.519-11.915,2.316
				C241.359,211.304,234.271,203.151,225.165,197.751z M492.836,399.407c-4.291,16.488-18.621,27.566-35.658,27.566H54.823
				c-17.037,0-31.367-11.078-35.658-27.566s2.82-33.147,17.696-41.452l216.23-120.728c0.898-0.501,1.904-0.752,2.91-0.752
				c1.006,0,2.012,0.251,2.91,0.751l216.23,120.729C490.015,366.261,497.127,382.918,492.836,399.407z"/>
		</g>
	</g>
</g>
</svg>